<?xml version="1.0" encoding="utf-8"?>
<!-- Generator: Adobe Illustrator 18.0.0, SVG Export Plug-In . SVG Version: 6.00 Build 0)  -->
<!DOCTYPE svg PUBLIC "-//W3C//DTD SVG 1.1//EN" "http://www.w3.org/Graphics/SVG/1.1/DTD/svg11.dtd">
<svg version="1.1" id="Layer_1" xmlns="http://www.w3.org/2000/svg" xmlns:xlink="http://www.w3.org/1999/xlink" x="0px" y="0px"
	 viewBox="0 0 500 500" enable-background="new 0 0 500 500" xml:space="preserve">
<rect x="0.1" opacity="0" fill="#FFFFFF" width="500" height="500"/>
<g>
	<g>
		<path fill="#22110C" d="M186.3,131.2c-10.2,3.2-20.9,7.8-26.2,17.1c-3.1,5.4-4,11.8-4.9,18.1c-3.8,28.4-11.6,56.8-15.4,85.1
			c-1-11.4-4.4-22-14.8-26.9l2.4-19.6c-0.2-3.5-0.4-6.9-0.5-10.4c-0.5-10.5-1.1-21.1-0.2-31.6c-0.6-1-1.9-1.6-3.1-1.5
			c1.2-1.1,2.5-2.2,3.7-3.3c-1.7-7.2-0.3-15.1,3.9-21.2c0.7-1.1,1.6-2.2,1.6-3.5c0-4.4-8.1-4.2-9.2-8.5c7.8-0.4,15.3-5.1,19.2-11.9
			c1.1-2,1.9-4.1,3.1-6.1c1.4-2.5,3.3-4.7,5.1-6.9c6.5-8,12.4-16.3,17.9-25c0.1,2.3,0.3,4.5,0.4,6.8c3.9-8.4,11.7-15,20.7-17.4
			c0,1.7,0.1,3.4,0.1,5.1c6.4-7.9,15.9-13.2,26-14.5c0.2-2.6-0.3-5.3-1.5-7.7c3.6,1.4,7.5,2.1,11.4,2c-3.4-3.6-3.7-9.2-2.1-13.9
			c1.6-4.7,4.8-8.6,7.9-12.4c3,9.3,10.7,17,20,20c-0.9-1.6-1.9-3.3-2.8-4.9c19.3,22.4,57.5,23.6,72.3,49.2c0.2-1.2,0.4-2.5,0.6-3.7
			c-0.4,3.4,2.9,6.1,6.1,7.3s6.8,1.5,9.6,3.4c4.3,2.9,5.4,9.6,2.3,13.7l19.9-2.6c-6.4,1.4-12.5,4.3-17.6,8.3c3.4-0.5,7,0.8,9.4,3.2
			c-1.5,0.1-3,0.2-4.5,0.2c5.4,1.9,10.6,4.3,15.6,7.1c-1.5,2.3-4,3.9-6.6,4.4c5.2,1.7,8.2,7.3,9.3,12.6c1.2,5.4,1.1,11,2.8,16.2
			c0.5,1.7,2.1,3.6,3.7,2.8c-1.2,22.4,2.4,44,4.6,66.4c-8.8,1.7-15.2,19.5-18.4,27.8c-1.2-31.2-7.3-69.7-15.6-99.8
			c-1.7-6.3-3.6-12.6-7.4-17.9c-3.8-5.3-9.8-9.4-16.3-9.3c-7.4,0.1-13.9,5.4-21.3,5.4c0.2-1.2,0.5-2.4,0.7-3.6
			c-19.2,5.7-39.5,7.8-59.4,6c-7.7-0.6-15.5-0.5-23.2,0.1c0.3,1,2-0.2,1.5-1.1c-0.5-0.9-1.7-1-2.7-0.9c-10.4,0.3-20.8,0.6-31.2,0.9"
			/>
		<g>
			<path fill="#2C1711" d="M257.2,87.1c-6.4-3.4-12.3-7.8-17.3-13c2.5,0.4,5,0.9,7.5,1.3c-5.4-6.8-9.9-14.4-13.3-22.4
				c3.3,2.2,4.3,6.6,6.6,9.8c1.7,2.4,4.2,4.3,6.7,6c3.3,2.3,6.8,4.4,10.3,6.4c-1.2-2-2.5-4.1-3.7-6.1c6.1,6.5,15.8,8.2,22.4,14.1
				c-8.6-0.1-17.2-1.9-25-5.4c3.3,2.2,5.8,5.7,6.7,9.6"/>
			<path fill="#2C1711" d="M291.2,106.8c-4.8,1.6-9.7,2.8-14.7,3.6c3,0.1,6,0.3,9,0.4c-8,2.3-16.2,3.6-24.5,4
				c8.2,1.1,16.6,1,24.8-0.3c-1.8,1.5-3.8,2.7-5.9,3.8c2.6,0,5.3-0.3,7.8-0.9c-3.4,3.3-8,5.2-12.6,6.1c-4.6,0.9-9.4,1-14.1,1
				c6.6,1.8,13.7,1.4,20.4-0.1c6.7-1.5,13.1-4.1,19.5-6.6c-2.5-0.4-5-0.5-7.5-0.4c3.3-1.6,6.4-3.5,9.2-5.7
				c-4.8,0.2-9.7,0.4-14.5,0.5c4.9-1.3,9.7-3.3,14.1-5.9c-3.8,0.5-7.5,1-11.3,1.5"/>
			<path fill="#2C1711" d="M250.8,126.5c-10.6,0.1-21.1,0.8-31.6,2.1c4.5-2.7,10-3,15.2-3.3c-2.5,0.1-5.1-0.4-7.4-1.5
				c2.8-0.4,5.6-0.7,8.4-1.1c-4.1,0.1-8-1.7-11.9-3c-4.7-1.6-9.7-2.5-14.6-2.6c6-2,12.5-1.2,18.7,0.1c6.2,1.3,12.3,3.2,18.6,3.5
				c-2.1,0.3-4.1,0.9-6.1,1.8c3.8,1.3,7.6,2.7,11.4,4c-0.3,0.3-0.8,0.3-1.2,0.2"/>
			<path fill="#2C1711" d="M325.8,123.1c8.9,5.3,15,14.5,18.7,24.2c3.7,9.7,5.1,20.1,6.5,30.4c0.8-2.4,1.7-4.8,2.5-7.2
				c0.8,12,1.6,24.1,2.3,36.1c2.2-17.7,4.1-36.8-4.4-52.5c1.7,2.2,3.4,4.4,5.1,6.6c-0.8-8.6-3.8-17-8.6-24.3
				c-5.2-7.9-13.7-14.8-23.2-14.2"/>
			<path fill="#2C1711" d="M173.6,132.8c-8,2.1-14.9,8-18.2,15.6c-3.3,7.6-3.1,16.2-4.3,24.4c-0.8,5.4-2.2,10.6-4.2,15.6
				c0.1-5.6,0.5-11.2,1.1-16.7c-0.2,2.1-1.3,4.2-3.1,5.4c1.7-11,4.1-22,7.2-32.7c0,1.6,0,3.2,0.1,4.8c1.9-6.5,6.9-12,13.2-14.5
				c2.8-1.1,5.7-1.6,8.6-2.6"/>
		</g>
	</g>
	<g>
		<path opacity="0.14" fill="#FFFFFF" d="M141.4,253.9c-5.1,16.9,3.4,57.5,38,55.1c30.3-2.1,46.1-12.3,52-28.9
			c15.4-43.8-3.8-42.4-32.3-45C168.9,232.3,146.5,237,141.4,253.9z"/>
		<path opacity="0.14" fill="#FFFFFF" d="M359.3,254.1c5.1,16.9-3.4,57.5-38,55.1c-30.3-2.1-46.1-12.3-52-28.9
			c-15.4-43.8,3.8-42.4,32.3-45C331.8,232.5,354.2,237.2,359.3,254.1z"/>
		<g>
			<polygon opacity="0.14" fill="#FFFFFF" points="155.6,302.2 144.6,284.7 171.3,234.6 191.5,235.3 			"/>
			<polygon opacity="0.14" fill="#FFFFFF" points="172.7,306.2 165,305.9 201.6,235.6 209.3,236.5 			"/>
		</g>
		<g>
			<polygon opacity="0.14" fill="#FFFFFF" points="288,302.5 274.8,290 303.7,234.8 323.9,235.6 			"/>
			<polygon opacity="0.14" fill="#FFFFFF" points="305.1,306.4 297.4,306.1 334,235.8 341.7,236.8 			"/>
		</g>
		<path fill="#010101" d="M370.1,238.7c0-7.6-21.2-5.2-56.3-6.6c-24.2-1-43.2,2.6-51.3,10.4h-25.2c-8.1-7.8-27.1-11.4-51.3-10.4
			c-35.1,1.4-56.3-1-56.3,6.6c0,1.2-0.5,2.9,0.7,4.9c2.4,3.9,6.6,0,7.3,18.3c0,0,2.2,13.4,2.8,17.9c3.1,23.3,18.9,29,31.9,30.6
			c14.2,1.7,22.2,0,32.3-2.4c12.7-3.1,23.1-14.9,28.8-26.7c3.4-7,6-18.1,7.1-23.3h18.4c1.1,5.1,3.7,16.2,7.1,23.3
			c5.7,11.8,16.1,23.7,28.8,26.7c10.1,2.4,18.1,4.2,32.3,2.4c13-1.6,28.8-7.3,31.9-30.6c0.6-4.5,2.8-17.9,2.8-17.9
			c0.7-18.3,4.9-14.3,7.3-18.3C370.6,241.6,370.1,239.9,370.1,238.7z M233.7,259.2c0,0-0.7,11.8-5.2,21.2
			c-5.7,11.8-12.3,20.2-25,23.3c-10.1,2.4-17.7,3.8-31.9,2.1c-13-1.6-24-8-27.1-31.3c-0.6-4.5-1.4-14.6-1.4-14.6
			c-0.7-18.3,20.1-24.3,41-24C218.8,236.5,237.2,242.9,233.7,259.2z M356.9,259.9c0,0-0.8,10.1-1.4,14.6
			c-3.1,23.3-14.1,29.7-27.1,31.3c-14.2,1.7-21.9,0.3-31.9-2.1c-12.7-3.1-19.3-11.5-25-23.3c-4.5-9.4-5.2-21.2-5.2-21.2
			c-3.5-16.3,14.9-22.7,49.7-23.3C336.8,235.6,357.6,241.6,356.9,259.9z"/>
	</g>
</g>
</svg>
